<svg width="118" height="84" viewBox="0 0 118 84" fill="none" xmlns="http://www.w3.org/2000/svg">
<g clip-path="url(#clip0_983_140)">
<path opacity="0.6" d="M125.636 -50.6689C114.989 -58.4441 101.659 -62.4909 88.4744 -61.951C79.5554 -61.5863 70.744 -59.2 61.8281 -59.6282C57.3343 -59.8454 52.8972 -60.7764 48.4071 -61.0903C43.9171 -61.4042 39.2155 -61.0426 35.2795 -58.8679C31.3434 -56.6932 28.358 -52.3677 28.8384 -47.9047L32.9073 -49.0234C28.0596 -47.5167 23.9253 -43.802 21.9768 -39.1168C19.8709 -34.0529 20.3689 -27.9897 23.2731 -23.3352C26.169 -18.6895 31.0394 -15.7175 35.3191 -12.2954C39.5989 -8.87323 43.6602 -4.29847 43.7383 1.1709C43.8214 6.95543 39.4277 11.9552 38.856 17.7121C38.1987 24.3228 43.5356 30.9536 50.1497 31.7446C54.7544 32.2959 59.2362 30.371 63.6765 29.0376C68.1168 27.7041 73.3189 27.0594 77.0667 29.7822C83.6236 34.5459 81.0934 45.6165 86.5461 51.6069C91.3603 56.8967 100.158 55.7466 106.425 52.2843C116.158 46.9066 123.179 36.9001 124.912 25.94C125.812 20.2459 125.667 13.6848 129.927 9.78931C133.425 6.59068 138.775 6.3766 142.711 3.73232C146.122 1.44148 148.149 -2.52997 148.765 -6.58491C149.381 -10.6399 148.717 -14.789 147.638 -18.7466C144.174 -31.4438 136.282 -42.8948 125.636 -50.6689Z" fill="white"/>
<path opacity="0.3" d="M0.00883651 50.1504C1.09609 49.6262 2.4679 49.6632 3.63889 49.8572C4.83506 50.0405 5.95568 50.3984 7.07568 50.7989C9.32007 51.6056 11.5726 52.6195 14.592 53.3101C20.661 54.7264 25.6591 51.5579 27.7782 50.4373C28.7415 49.9238 30.2707 49.0856 31.5367 48.3197L32.3552 47.8244C30.3538 50.1981 28.1585 51.4713 25.9336 52.4751C23.4915 53.5939 20.9424 54.3485 18.0685 56.3769C16.1565 57.7449 14.7891 59.46 14.1123 61.0634C13.4034 62.6567 13.394 64.09 13.6181 65.0813C13.807 66.0764 14.3238 66.7349 14.6456 67.1179C14.9937 67.5065 15.2556 67.6597 15.2556 67.6597C15.7001 65.4329 17.2072 64.1704 18.7981 63.4603C20.4281 62.7214 22.2154 62.3862 24.3893 61.4928C26.5688 60.6101 28.1339 58.9521 29.1859 57.2489C30.248 55.5413 30.775 53.8174 31.1483 52.8505C31.4807 51.9785 31.9667 50.5553 32.3111 49.3456C32.4949 48.6657 32.6586 48.0605 32.7682 47.6568C36.3357 47.1294 39.8822 46.482 43.4078 45.7144C41.922 47.5011 40.3745 48.6757 38.7786 49.7869C36.7967 51.1831 34.6795 52.5235 32.8494 54.9838C30.4413 58.3444 30.605 61.2806 31.2786 62.8809C31.9743 64.532 33.0332 65.1485 33.0332 65.1485C33.4821 63.2343 34.6392 62.0095 35.9349 61.0477C37.2475 60.0746 38.7049 59.3445 40.2197 58.2057C41.7306 57.0756 42.4515 55.4829 42.8903 53.8456C43.331 52.2234 43.4462 50.598 43.6086 49.6783C43.7792 48.6663 44.0978 46.7754 44.3112 45.5116C44.9175 45.3747 45.5231 45.2354 46.1281 45.0897C46.9673 45.0238 47.9715 44.8637 48.7521 44.5875C49.0662 44.4711 49.3731 44.3366 49.6713 44.1844C50.3777 43.9961 51.0853 43.8078 51.7885 43.6037C53.358 43.1417 54.9174 42.6419 56.4712 42.1215C55.2481 43.3493 53.9211 44.4696 52.505 45.4702C51.5606 46.1513 50.6163 46.7961 49.6889 47.5124C48.7446 48.2613 47.906 48.9155 46.8993 50.1228C45.7164 51.5924 45.2486 52.6967 44.9622 53.6585C44.6927 54.6034 44.643 55.4164 44.5958 56.1729C44.5542 56.8728 44.5189 57.5772 44.4912 58.1033C44.4648 58.6018 44.4787 58.9195 44.4787 58.9195C46.3944 57.9878 47.8198 57.1284 49.4188 56.3386L51.7577 55.115L52.8846 54.4973C53.2845 54.2922 53.6688 54.058 54.0342 53.7966C55.6773 52.6453 56.3415 51.0343 56.6928 49.4491C57.0441 47.864 57.0787 46.3032 57.2204 45.3992C57.34 44.5981 57.5572 43.2691 57.8336 42.1215C57.8739 41.9495 57.9154 41.785 57.9595 41.6243C61.9402 40.2422 65.8314 38.6161 69.6108 36.7551C67.7221 39.6913 66.004 41.7869 64.2488 43.8147C62.311 46.0659 60.3739 48.2381 58.7792 51.2089C58.511 51.7111 58.2755 52.1939 58.0577 52.6836C57.5423 53.8855 57.198 55.1533 57.0347 56.4503C56.8748 57.7806 56.9421 58.8021 57.0271 59.6866C57.1121 60.5712 57.2431 61.3026 57.3463 61.8268C57.3972 62.1077 57.4672 62.3848 57.5559 62.6561C59.4056 60.7451 60.671 59.1015 62.1719 57.581C62.9053 56.8163 63.6319 56.0868 64.3817 55.4082C65.2311 54.6061 66.028 53.7505 66.7677 52.8468C68.3618 50.8975 68.9196 48.7906 69.1758 46.8394C69.4201 44.8932 69.3647 43.0952 69.4522 42.0229C69.5328 41.0812 69.6643 39.5073 69.8671 38.1676C69.9558 37.5285 70.0515 36.9466 70.1289 36.5065C72.1289 35.502 74.0889 34.4176 76.0091 33.2532C77.5893 32.3034 79.1279 31.2813 80.6357 30.2153C79.0392 37.575 75.4229 40.8439 72.6195 46.8519C70.649 51.0375 70.4053 53.9906 70.6616 55.9971C70.9102 57.9897 71.6997 58.9967 71.6997 58.9967C74.1506 54.2461 77.6063 52.5567 80.7786 47.7842C83.9164 42.9985 82.401 37.7457 82.051 35.5227C81.8168 34.0788 81.3018 31.3384 81.0355 29.9353C84.1055 27.737 86.9901 25.2922 89.6605 22.6252C90.0383 25.7837 89.3212 28.5447 88.5078 31.1357C87.5792 34.166 86.2684 37.1719 86.1155 41.3575C85.9121 46.4545 87.2682 49.5515 88.5481 51.2139C89.8412 52.8945 91.072 53.2662 91.072 53.2662C90.7471 50.5202 91.2206 48.3254 91.8904 46.1651C92.2449 45.0979 92.6302 43.9396 92.9909 42.8516C93.3806 41.6889 93.7067 40.4271 94.0744 39.2826C94.8192 36.7331 94.7039 34.2181 94.233 31.9895C93.7621 29.7608 92.9273 27.9471 92.4873 26.8729C91.9732 25.6103 91.3804 24.381 90.7125 23.1921C90.4978 22.8111 90.2907 22.4695 90.1037 22.1726C92.095 20.1553 93.9472 18.006 95.6477 15.7395C96.3712 14.7619 97.0659 13.7616 97.7315 12.7387C97.6188 14.8537 97.649 16.7252 97.6849 18.4805C97.7586 20.8034 97.8442 22.9197 98.0041 24.9933C98.159 27.0594 98.3749 29.1242 98.7382 31.1733C99.0674 33.1195 99.4307 35.1875 100.109 37.4921C101.008 40.5576 102.273 42.9985 103.651 44.7363C105.025 46.4834 106.467 47.5111 107.641 48.0573C108.843 48.5966 109.76 48.6933 110.379 48.6613C110.988 48.6374 111.285 48.5169 111.285 48.5169C108.796 46.312 107.983 43.6244 107.582 41.0461C107.18 38.4137 107.215 35.7236 106.739 32.2312C106.214 28.5799 104.884 26.058 103.663 23.7823C102.426 21.5454 101.176 19.684 100.578 18.4504C100.034 17.3649 99.2003 15.5324 98.6759 13.8229C98.4706 13.1781 98.3088 12.5572 98.1861 12.0337C99.7608 9.56708 101.128 6.97485 102.274 4.28349C102.786 3.07938 103.256 1.86021 103.682 0.625957C103.682 0.716987 103.682 0.808644 103.682 0.899047C103.716 2.76549 103.825 4.54906 104.081 6.33075C104.312 8.18999 104.7 10.0266 105.238 11.8215C105.805 13.7187 106.584 15.7138 107.81 17.8169C108.977 19.8341 110.529 21.603 112.38 23.0233C113.936 24.2102 115.666 25.1513 117.51 25.8138C120.813 26.9966 123.591 27.1021 125.223 27.1881C126.687 27.2797 129.026 27.2232 130.835 26.8742C132.669 26.5546 133.867 25.9883 133.867 25.9883C131.299 26.2275 128.63 25.5307 126.411 24.5576C124.274 23.6123 122.285 22.3671 120.502 20.8599C117.012 17.9657 114.764 14.7231 112.244 10.2582C108.957 4.32744 107.384 0.759671 106.163 -1.60148C105.696 -2.56766 105.295 -3.33043 104.992 -3.90298C105.348 -5.43192 105.607 -6.98196 105.765 -8.54366V-8.54805C105.781 -8.72052 105.728 -8.89218 105.617 -9.02531C105.505 -9.15845 105.346 -9.24217 105.173 -9.25809C105 -9.27381 104.829 -9.22066 104.695 -9.11027C104.562 -8.99989 104.478 -8.84128 104.462 -8.66922L104.457 -8.61146C104.344 -7.42756 104.169 -6.25032 103.934 -5.0845L103.587 -4.84844L102.873 -4.52827C102.398 -4.30245 101.904 -4.12188 101.396 -3.98898C100.879 -3.84585 100.398 -3.68388 99.8689 -3.5941C97.8121 -3.16469 95.8 -3.02908 93.82 -2.99518C89.8538 -2.92424 85.9769 -3.2463 81.2433 -2.90039C74.9331 -2.449 71.1627 -0.857535 69.1034 0.588911C67.0321 2.07177 66.6147 3.32674 66.6147 3.32674C73.6104 2.1289 77.7888 4.29794 85.2051 4.61247C92.6736 4.98915 98.2049 0.922899 100.427 -0.761482C101.313 -1.38928 102.609 -2.449 103.58 -3.47921C102.965 -0.989374 102.154 1.44786 101.152 3.80951C100.942 4.32138 100.722 4.82843 100.492 5.33066C99.5472 6.30061 98.3365 7.01379 97.0258 7.42374C95.0206 8.08921 92.9166 8.22732 90.8353 8.1275C88.7124 8.04212 86.7431 7.70311 84.2286 7.47208C82.0082 7.28374 79.7298 7.0502 77.1278 6.91272C70.2026 6.47891 65.6433 7.59262 63.2145 8.91539C61.9818 9.56892 61.237 10.2212 60.7994 10.7121C60.3619 11.2031 60.2228 11.5063 60.2228 11.5063C64.0958 11.0204 67.1801 11.6388 70.2259 12.4204C73.2881 13.2102 76.3484 14.2605 80.5507 14.8512C81.5727 14.9933 82.6038 15.0604 83.6356 15.0521C84.1632 15.0477 84.5674 15.0377 84.9829 15.0126C85.4336 14.9931 85.8731 14.963 86.3314 14.9215C88.0784 14.7725 89.802 14.4208 91.4674 13.8737C93.8382 13.077 96.0264 11.8179 97.9046 10.1697C97.9399 10.1409 97.9789 10.1069 98.0148 10.0743C97.0075 11.794 95.9146 13.4609 94.7361 15.0747C93.5871 16.6398 92.3506 18.139 91.0575 19.5873C87.3714 20.6897 83.8704 20.3865 80.6735 19.8497C76.8653 19.205 73.2371 18.075 68.3693 17.7077C65.5766 17.4974 62.9261 17.4177 60.8146 17.7491C58.6803 18.063 57.0372 18.694 55.921 19.4191C54.8047 20.1442 54.213 20.9 53.9347 21.4538C53.6564 22.0075 53.635 22.3214 53.635 22.3214C55.146 21.7564 56.684 21.7375 58.0835 21.9321C59.4931 22.1268 60.7995 22.5223 62.1127 22.9793C63.426 23.4363 64.7367 23.9681 66.2414 24.4603C66.9742 24.7114 67.8732 24.9242 68.606 25.1352C69.3514 25.3411 70.1636 25.552 71.0324 25.7473C74.5006 26.5483 77.8241 26.3123 80.5627 25.6217C83.3063 24.9481 85.3965 23.8231 86.6304 23.199C87.2273 22.9159 87.9953 22.4909 88.7779 22.0144C85.7723 25.0355 82.4916 27.7715 78.9781 30.1871C77.6075 30.894 75.8441 31.0365 74.2243 30.8017C72.2625 30.5041 70.4418 29.8179 68.7049 28.9559C67.8342 28.5334 66.9767 28.0563 66.0853 27.5666L64.6562 26.7976L63.2264 26.0806C61.3182 25.1389 59.2444 24.1847 56.7671 23.4225C53.4776 22.3999 50.4822 22.1902 48.1219 22.5141C45.7435 22.8324 44.0392 23.6988 42.9595 24.4998C42.5066 24.8637 42.0906 25.271 41.7174 25.7159C41.4799 26.0368 41.2757 26.3809 41.108 26.743C40.8524 27.308 40.8316 27.63 40.8316 27.63C44.0367 26.2489 46.9554 26.7762 49.4604 27.7656C52.0215 28.7764 54.3483 30.2624 57.5673 31.8984C59.0891 32.6753 60.6942 33.2779 62.352 33.6946C63.8314 34.0901 65.4998 34.3952 66.9729 34.4693C69.6171 34.6262 71.8105 34.1792 73.2321 33.8007C70.0707 35.605 66.8025 37.2166 63.4455 38.6265C60.5697 38.4577 58.2623 37.1518 56.2515 35.6684C53.8805 33.9105 51.3308 31.5965 47.5302 30.1437C45.0018 29.1707 42.7769 28.9277 41.0293 29.047C39.2816 29.1663 37.9728 29.6289 37.0391 30.1356C36.2037 30.6001 35.6641 31.0942 35.3066 31.5048C34.8764 31.339 34.4331 31.2092 33.9813 31.1168C32.3155 30.7621 30.938 31.012 30.0277 31.4445C29.1047 31.8733 28.5923 32.4446 28.297 32.8778C28.0017 33.311 27.9193 33.5998 27.9193 33.5998C30.0856 33.5332 31.5311 34.7524 32.4691 36.1329C33.4279 37.5285 34.1375 39.2443 35.4986 41.085C36.6507 42.8033 38.669 44.0513 40.5873 44.6007C41.4031 44.8442 42.2423 45.0016 43.0911 45.0703C40.9401 45.5537 38.7786 45.9898 36.6066 46.3786C34.2099 45.7169 32.5938 44.1612 31.2075 42.5082C29.6411 40.6801 28.2189 38.5035 25.3613 36.7061C23.4613 35.539 21.6117 35.0437 20.1278 35.055C18.6496 34.9972 17.5132 35.4398 16.7174 35.8586C15.1095 36.826 14.6827 37.9586 14.6827 37.9586C16.7552 38.0891 18.2378 39.0547 19.3994 40.2186C20.576 41.4114 21.4089 42.8177 22.6825 44.2918C23.9417 45.7702 25.7221 46.5619 27.5346 46.9662C28.7497 47.2418 29.9238 47.2996 30.8599 47.309C30.3613 47.3805 29.8633 47.4559 29.3647 47.5237C26.9585 47.6367 24.8092 47.4013 22.7367 47.0541C19.4579 46.5035 16.3536 45.6528 12.4295 45.3214C7.223 44.8687 3.70437 45.9109 1.77035 47.3266C0.813417 48.0278 0.29717 48.7579 0.128447 49.3211C-0.0465712 49.8616 0.00883651 50.1504 0.00883651 50.1504ZM41.2861 34.3268C43.1289 35.4649 44.7594 36.8461 46.8836 38.3252C47.891 39.0304 48.9908 39.594 50.1523 40.0002C51.2774 40.4036 52.445 40.6774 53.6325 40.8163C55.2159 41.0084 56.645 40.9098 57.7574 40.7705C57.7253 40.8056 57.6913 40.8452 57.6598 40.8797C55.6486 41.5979 53.6203 42.2646 51.5751 42.8799C50.6987 43.1398 49.8174 43.3821 48.9353 43.6238C48.2472 43.4553 47.5942 43.1671 47.0064 42.7725C45.9758 42.0951 45.1372 41.203 44.3804 40.2513C43.6237 39.2995 42.9432 38.2643 42.1398 37.1751C41.7073 36.5802 41.2426 36.0094 40.7479 35.465C40.2274 34.8958 39.6755 34.3561 39.0946 33.8484C38.6349 33.4456 38.1496 33.073 37.6416 32.7328C38.9977 33.0793 40.1838 33.6538 41.2861 34.3268Z" fill="#b1d3ba"/>
<path d="M42.7913 17.8803C43.3403 17.3781 44.1581 17.154 44.8853 17.0592C45.6231 16.955 46.3522 16.9663 47.0887 17.0014C48.5607 17.078 50.0735 17.2745 51.983 17.1458C55.8233 16.9003 58.2119 14.1324 59.2632 13.0946C59.7411 12.6188 60.4947 11.851 61.106 11.1723L61.4995 10.7328C60.744 12.4907 59.6737 13.6377 58.5405 14.6283C57.2971 15.7251 55.9259 16.626 54.59 18.338C53.7055 19.4881 53.205 20.7462 53.0923 21.8147C52.9588 22.882 53.2106 23.732 53.521 24.2776C53.749 24.6977 54.0846 25.0499 54.4937 25.2984C54.6355 25.3901 54.7896 25.4613 54.9514 25.5099C54.8148 24.1144 55.4789 23.0986 56.2923 22.3948C57.1234 21.6678 58.1181 21.1505 59.245 20.2346C60.3719 19.3186 61.0034 18.0643 61.3225 16.8696C61.6417 15.6749 61.6461 14.5574 61.694 13.9189C61.7336 13.3439 61.7645 12.4166 61.7525 11.6394C61.7393 11.2043 61.7274 10.8176 61.7198 10.5596C63.7344 9.61118 65.7154 8.59541 67.6629 7.51224C67.1051 8.83062 66.4006 9.80433 65.6571 10.746C64.7354 11.925 63.7243 13.0952 63.0841 14.8763C62.2656 17.2927 62.8864 18.9997 63.572 19.8252C64.2796 20.6809 65.0156 20.8548 65.0156 20.8548C64.9375 19.6438 65.4021 18.7134 65.9952 17.913C66.5882 17.1125 67.3279 16.4119 68.0186 15.4683C68.7092 14.5247 68.8496 13.4594 68.8156 12.4141C68.7816 11.3688 68.5638 10.3951 68.4926 9.82191C68.4121 9.19411 68.261 8.01825 68.1602 7.2335C68.496 7.04433 68.8288 6.85327 69.1587 6.66032C69.6429 6.47198 70.2082 6.19701 70.6199 5.89504C70.7849 5.77023 70.9423 5.63586 71.0915 5.49262C71.4749 5.25406 71.8595 5.01738 72.2392 4.77191C73.084 4.21882 73.9163 3.64501 74.7417 3.0599C74.2388 4.00428 73.6549 4.90351 72.9965 5.74751C72.5615 6.3188 72.1183 6.86875 71.6984 7.45763C71.2753 8.06847 70.8957 8.60524 70.5167 9.4986C70.081 10.5784 70.003 11.3154 70.0061 11.9345C70.0162 12.5415 70.132 13.03 70.2403 13.4864C70.3448 13.9089 70.4481 14.3295 70.5261 14.6459C70.6004 14.9454 70.6659 15.1299 70.6659 15.1299C71.631 14.2378 72.3198 13.4751 73.1212 12.723L74.2796 11.5835L74.8355 11.0185C75.0353 10.8259 75.2205 10.6188 75.3895 10.3989C76.1538 9.42577 76.2577 8.35349 76.1809 7.35467C76.1041 6.35584 75.8447 5.42544 75.7666 4.86608C75.6936 4.37137 75.5834 3.5477 75.5406 2.81883C75.5337 2.70959 75.5286 2.60475 75.5242 2.50493C77.631 0.976932 79.641 -0.679425 81.5429 -2.45467C80.9511 -0.382939 80.3114 1.16458 79.6372 2.67569C78.8955 4.35254 78.1401 5.9823 77.7302 8.02327C77.6616 8.36731 77.6081 8.69564 77.5684 9.02398C77.5324 9.34226 77.5147 9.66233 77.5155 9.98263C77.5157 10.4685 77.5578 10.9535 77.6415 11.4322C77.76 12.09 77.9532 12.7322 78.2175 13.3464C78.4297 13.8486 78.6349 14.2636 78.7904 14.5555C78.8708 14.7124 78.9619 14.8636 79.063 15.0082C79.8097 13.5473 80.2667 12.3494 80.8799 11.183C81.1758 10.6004 81.4749 10.0391 81.7959 9.50425C82.1542 8.8785 82.4719 8.23055 82.7472 7.56435C83.3403 6.12732 83.2918 4.78258 83.0928 3.58286C82.8939 2.38314 82.5338 1.33534 82.3921 0.686202C82.2706 0.114278 82.0667 -0.839346 81.9464 -1.66741C81.8835 -2.06104 81.8362 -2.42077 81.8029 -2.69574C82.8051 -3.64749 83.7694 -4.63857 84.6957 -5.66899C85.4594 -6.51213 86.1859 -7.39104 86.886 -8.29005C87.2637 -3.65439 85.7112 -1.07603 85.132 2.97766C84.7184 5.80275 85.1037 7.59323 85.6149 8.73394C86.1261 9.87465 86.767 10.3223 86.767 10.3223C87.3632 7.07467 89.102 5.45934 90.1225 2.07175C91.1191 -1.31836 89.2808 -4.15286 88.6746 -5.40469C88.2773 -6.21518 87.4784 -7.74512 87.0723 -8.5261C88.4932 -10.3735 89.7603 -12.3335 90.861 -14.3866C91.6499 -12.5867 91.7223 -10.8264 91.7059 -9.14951C91.7009 -7.19203 91.4648 -5.18119 92.1246 -2.67942C92.9203 0.371048 94.277 1.95937 95.3322 2.71398C96.398 3.47676 97.1925 3.47676 97.1925 3.47676C96.5076 1.91103 96.3943 0.526114 96.4018 -0.866969C96.4201 -1.56131 96.4396 -2.3153 96.4585 -3.02283C96.4799 -3.77619 96.4465 -4.58416 96.4585 -5.32622C96.4415 -6.96603 95.9221 -8.43256 95.2434 -9.66618C94.5647 -10.8998 93.7463 -11.8233 93.2918 -12.3802C92.7612 -13.0345 92.1904 -13.6554 91.5825 -14.2391C91.3873 -14.4274 91.2048 -14.5913 91.0398 -14.7338C91.8556 -16.283 92.5655 -17.8854 93.1646 -19.5301C93.4164 -20.237 93.6473 -20.9517 93.8571 -21.6741C94.1719 -20.4034 94.5238 -19.3022 94.86 -18.2708C95.3196 -16.9122 95.7508 -15.6748 96.2173 -14.477C96.672 -13.2784 97.1868 -12.1033 97.7598 -10.9563C98.3044 -9.86206 98.8905 -8.70314 99.7039 -7.46199C100.786 -5.81025 101.97 -4.59232 103.098 -3.81071C104.227 -3.02911 105.26 -2.67252 106.053 -2.55952C106.86 -2.4553 107.42 -2.55951 107.781 -2.69072C108.141 -2.82193 108.29 -2.93807 108.29 -2.93807C106.423 -3.79753 105.457 -5.24147 104.759 -6.69482C104.05 -8.17956 103.588 -9.77605 102.682 -11.7561C101.716 -13.821 100.478 -15.0747 99.345 -16.2022C98.2118 -17.304 97.1415 -18.1816 96.5642 -18.8038C96.0493 -19.3487 95.2258 -20.2829 94.6126 -21.2007C94.3752 -21.5447 94.1681 -21.8831 94.0019 -22.1707C94.49 -23.9101 94.8333 -25.6867 95.0281 -27.4825C95.115 -28.2852 95.1737 -29.0896 95.2044 -29.8957C95.2207 -29.8423 95.2371 -29.7877 95.2541 -29.7344C95.5915 -28.6638 95.9958 -27.6155 96.4648 -26.5954C96.9335 -25.537 97.4905 -24.5198 98.13 -23.5543C98.8698 -22.4271 99.7423 -21.3922 100.729 -20.4718C101.781 -19.4885 103.016 -18.7206 104.365 -18.2118C105.498 -17.788 106.69 -17.5402 107.898 -17.4772C110.063 -17.3674 111.725 -17.8006 112.705 -18.0423C113.586 -18.2494 114.96 -18.7002 115.967 -19.2288C116.994 -19.7448 117.6 -20.2961 117.6 -20.2961C116.125 -19.6959 114.422 -19.6318 112.935 -19.8114C111.503 -19.9888 110.104 -20.3693 108.78 -20.9414C106.199 -22.03 104.286 -23.5455 101.995 -25.7359C98.9887 -28.6564 97.4186 -30.4852 96.2734 -31.663C95.8239 -32.1508 95.4499 -32.5306 95.1672 -32.8143C95.103 -33.7819 94.9768 -34.7444 94.7895 -35.6959C94.7651 -35.7979 94.7018 -35.8864 94.6131 -35.9428C94.5244 -35.9991 94.4172 -36.0187 94.3142 -35.9976C94.2112 -35.9765 94.1205 -35.9162 94.0612 -35.8295C94.002 -35.7429 93.9789 -35.6367 93.9969 -35.5333L94.0038 -35.4982C94.1497 -34.7781 94.258 -34.051 94.328 -33.3197L94.165 -33.1182L93.8005 -32.8043C93.5606 -32.5859 93.3005 -32.3909 93.0236 -32.2217C92.744 -32.0447 92.4891 -31.8632 92.1919 -31.7195C91.053 -31.0979 89.8877 -30.6604 88.7237 -30.2856C86.3892 -29.536 84.041 -29.0356 81.3043 -27.9859C77.6528 -26.5935 75.7112 -24.9794 74.753 -23.7571C73.7948 -22.5109 73.7728 -21.6942 73.7728 -21.6942C77.6937 -23.6523 80.5532 -23.1155 84.9941 -24.2524C89.4772 -25.3624 92.0182 -28.7531 93.0299 -30.1456C93.5536 -30.8255 94.0142 -31.5515 94.4061 -32.3146C94.4901 -30.733 94.448 -29.1472 94.2802 -27.5722C94.247 -27.2324 94.2078 -26.8934 94.1625 -26.5552C93.7674 -25.8079 93.1924 -25.1703 92.4891 -24.6994C91.4232 -23.9461 90.2038 -23.4915 88.9553 -23.1789C87.6849 -22.8512 86.4604 -22.6999 84.9318 -22.3879C83.5858 -22.1016 82.1963 -21.8348 80.6331 -21.4518C76.461 -20.4731 73.9654 -19.0034 72.768 -17.7861C72.1567 -17.1797 71.8331 -16.6611 71.6625 -16.2926C71.5698 -16.1122 71.5031 -15.9196 71.4642 -15.7207C73.6677 -16.6988 75.601 -16.8833 77.542 -16.965C79.4936 -17.0441 81.4919 -16.9694 84.0831 -17.3699C84.7128 -17.4682 85.3343 -17.6124 85.9429 -17.8012C86.2577 -17.8979 86.4919 -17.9763 86.733 -18.0649C86.9955 -18.1571 87.2505 -18.2532 87.5136 -18.3593C88.5199 -18.7592 89.4759 -19.2748 90.3624 -19.8955C91.621 -20.7894 92.6889 -21.9238 93.5039 -23.2329C93.5197 -23.2567 93.536 -23.285 93.5518 -23.3095C93.2647 -22.1129 92.9176 -20.9324 92.5105 -19.7681C92.112 -18.638 91.6499 -17.5306 91.145 -16.4408C89.1637 -15.1318 87.0396 -14.6867 85.0533 -14.4318C82.6836 -14.1317 80.3354 -14.1549 77.3921 -13.502C75.703 -13.1253 74.1216 -12.7028 72.9317 -12.1297C71.7254 -11.5646 70.868 -10.8967 70.3379 -10.2695C69.8078 -9.64233 69.595 -9.08798 69.5308 -8.71255C69.4666 -8.33713 69.5094 -8.14754 69.5094 -8.14754C70.3001 -8.75085 71.2092 -9.0365 72.0692 -9.17085C72.9292 -9.3052 73.7816 -9.30708 74.6378 -9.27067C75.494 -9.23426 76.3666 -9.1539 77.3449 -9.1313C77.8234 -9.11498 78.3932 -9.14825 78.8641 -9.15453C79.335 -9.1608 79.86 -9.18592 80.4084 -9.22547C82.3922 -9.36343 84.3149 -9.96889 86.0184 -10.9921C87.5199 -11.8798 88.5537 -12.9175 89.1713 -13.5033C89.4735 -13.7776 89.8512 -14.1656 90.2283 -14.5869C88.9931 -12.2651 87.5443 -10.0628 85.9007 -8.00817C85.2176 -7.34647 84.2009 -6.94719 83.2005 -6.79715C81.9873 -6.62325 80.788 -6.70423 79.6063 -6.90387C79.0158 -6.99804 78.4234 -7.12737 77.8083 -7.25732L76.8255 -7.45759L75.8516 -7.62647C74.5541 -7.84306 73.1571 -8.03705 71.5555 -8.04521C69.4269 -8.06342 67.6188 -7.65284 66.2816 -7.04074C64.9325 -6.42863 64.0781 -5.6125 63.5839 -4.94515C63.3813 -4.64888 63.2084 -4.33346 63.0677 -4.00345C62.985 -3.77119 62.9259 -3.5312 62.8914 -3.28713C62.8417 -2.91045 62.887 -2.71395 62.887 -2.71395C64.534 -4.10327 66.3546 -4.31107 68.0129 -4.17295C69.709 -4.03233 71.3496 -3.56838 73.548 -3.17601C74.5875 -2.98835 75.645 -2.91844 76.7003 -2.96759C77.6446 -2.99835 78.6865 -3.11512 79.5711 -3.33422C80.8383 -3.64322 82.0475 -4.15366 83.152 -4.84595C81.6063 -3.21552 79.9631 -1.67984 78.2314 -0.247333C76.5007 0.166386 74.9022 -0.193972 73.4467 -0.712533C71.7292 -1.33029 69.8072 -2.24185 67.299 -2.42328C65.6294 -2.54884 64.2708 -2.29772 63.2591 -1.91225C62.2474 -1.52679 61.5593 -1.02267 61.0953 -0.556212C60.7724 -0.23264 60.509 0.144961 60.3171 0.559385C60.0331 0.538663 59.7478 0.540971 59.4641 0.56629C58.4152 0.654182 57.6459 1.04781 57.1851 1.46592C56.8279 1.77359 56.5628 2.17351 56.4189 2.6217C56.3645 2.78145 56.3325 2.94792 56.3238 3.1164C57.593 2.69076 58.6664 3.15345 59.4685 3.80259C60.2869 4.45676 61.0128 5.34446 62.1479 6.18822C63.1376 6.9987 64.5547 7.37664 65.7874 7.35969C66.3141 7.35872 66.8391 7.30189 67.3538 7.19018C66.1689 7.85984 64.9692 8.50354 63.7545 9.12129C62.219 9.15708 60.9845 8.52551 59.8676 7.79601C58.6142 6.99431 57.3827 5.96096 55.3707 5.41038C54.0379 5.05944 52.8556 5.09648 51.9805 5.36831C51.2699 5.5544 50.6229 5.92858 50.1081 6.45127C49.3313 7.31009 49.2821 8.05592 49.2821 8.05592C50.5306 7.76336 51.5801 8.06973 52.4753 8.55C53.385 9.0447 54.1304 9.72774 55.1478 10.3706C56.1652 11.0135 57.3513 11.1704 58.4958 11.0863C59.1838 11.0285 59.8636 10.8973 60.5236 10.6952C60.2416 10.827 59.9608 10.9601 59.6781 11.0894C58.2761 11.5854 56.9628 11.8296 55.6754 11.9941C53.6375 12.2534 51.6499 12.3042 49.2702 12.8102C46.111 13.4713 44.2173 14.7156 43.3284 15.8971C42.8877 16.4828 42.7139 17.0064 42.7152 17.3693C42.7095 17.7196 42.7913 17.8803 42.7913 17.8803ZM64.3596 1.16081C65.6527 1.50359 66.864 2.02906 68.3856 2.52627C69.1078 2.76337 69.8591 2.90046 70.6187 2.93371C71.3561 2.97094 72.0954 2.92418 72.8221 2.79434C73.6607 2.6408 74.4769 2.38438 75.2523 2.03094C75.2397 2.05793 75.2271 2.08682 75.2145 2.11318C74.1543 2.89668 73.0748 3.65275 71.976 4.38142C71.5045 4.69092 71.0273 4.99289 70.5488 5.29235C70.1117 5.31515 69.674 5.26117 69.2557 5.13289C68.5247 4.9163 67.8706 4.53899 67.2505 4.11083C66.6304 3.68268 66.0443 3.19237 65.3744 2.69201C65.0108 2.41765 64.6325 2.16322 64.2412 1.92987C63.8315 1.68628 63.4084 1.4658 62.9739 1.26943C62.6298 1.11323 62.2758 0.979438 61.9143 0.868893C62.7395 0.842833 63.5639 0.941247 64.3596 1.16081Z" fill="#b1d3ba"/>
<path d="M48.5204 45.3641C49.0826 45.5009 49.578 45.9291 49.9514 46.3591C50.336 46.7892 50.6439 47.2631 50.9341 47.7503C51.5164 48.7303 52.0396 49.7881 52.943 50.9621C54.7524 53.3289 57.5672 53.6773 58.6922 53.9071C59.2053 54.0101 60.0263 54.1651 60.7282 54.2669L61.1809 54.3296C59.7159 54.599 58.5166 54.4018 57.3878 54.0973C56.1437 53.7684 54.9715 53.273 53.2899 53.1487C52.1655 53.0734 51.1362 53.2919 50.3939 53.6786C49.6454 54.0515 49.2041 54.5782 48.9843 55.012C48.8099 55.34 48.726 55.7084 48.7413 56.0793C48.7427 56.21 48.7629 56.3398 48.8011 56.4648C49.646 55.7742 50.5878 55.7679 51.3931 55.9895C52.2209 56.2118 52.9833 56.6311 54.0599 56.9614C55.1364 57.2916 56.2193 57.161 57.129 56.8509C58.0387 56.5407 58.7659 56.0661 59.1977 55.8225C59.5868 55.6009 60.2006 55.2224 60.698 54.8808L61.383 54.3962C62.8624 55.2851 64.3709 56.1237 65.9083 56.9118C64.8135 57.1202 63.883 57.0838 62.9537 57.0097C61.7947 56.9231 60.6029 56.7755 59.1763 57.1284C57.26 57.6381 56.4233 58.7726 56.1828 59.5686C55.9309 60.3916 56.1368 60.9397 56.1368 60.9397C56.8873 60.369 57.6893 60.2686 58.4618 60.3063C59.2443 60.3458 60.0061 60.5191 60.9133 60.5574C61.8205 60.5957 62.5697 60.2297 63.232 59.7582C63.8943 59.2867 64.4282 58.7274 64.7713 58.4367C65.1433 58.1146 65.8415 57.5126 66.3036 57.1108C66.5693 57.2443 66.8358 57.3763 67.1032 57.5069C67.4513 57.7555 67.8285 57.9611 68.2263 58.119C68.3779 58.1712 68.5324 58.2146 68.689 58.249C69.0082 58.3934 69.3268 58.539 69.6491 58.6778C70.3693 58.9841 71.0971 59.2735 71.8318 59.5567C71.0045 59.6382 70.1717 59.6487 69.3425 59.5881C68.786 59.5529 68.2402 59.5046 67.6786 59.487C67.1013 59.4769 66.5907 59.4638 65.8497 59.6038C64.9639 59.7871 64.4533 60.0533 64.0542 60.3213C63.6658 60.5888 63.3995 60.8732 63.1501 61.1375L62.5206 61.8193C62.3582 61.9957 62.2688 62.1175 62.2688 62.1175C63.261 62.3554 64.0498 62.4709 64.8821 62.6649L66.1198 62.9229L66.7248 63.0378C66.9354 63.0831 67.1489 63.1131 67.3638 63.1276C68.3226 63.2017 69.0605 62.808 69.6743 62.3297C70.2881 61.8513 70.7779 61.2844 71.1066 60.9937C71.3955 60.7338 71.8822 60.3088 72.3348 59.9685C72.4022 59.9177 72.4677 59.8693 72.5325 59.8229C74.4252 60.5225 76.3596 61.1046 78.3245 61.5656C76.7279 62.0754 75.4531 62.3284 74.1851 62.5437C72.7812 62.7867 71.4018 63.0001 69.9041 63.611C69.6523 63.7146 69.4162 63.8213 69.1864 63.9368C68.9651 64.05 68.7505 64.1758 68.5436 64.3135C68.2288 64.5218 67.9327 64.7568 67.6584 65.016C67.2835 65.3747 66.9508 65.7749 66.6669 66.2088C66.4321 66.5616 66.2526 66.8718 66.1305 67.0965C66.0634 67.2158 66.0047 67.3395 65.9549 67.4669C67.2209 67.3238 68.1917 67.1022 69.2103 66.9954C69.714 66.9327 70.2063 66.8868 70.6904 66.8642C71.2493 66.8261 71.8051 66.752 72.3544 66.6426C73.5468 66.4091 74.3954 65.8001 75.0879 65.1598C75.7804 64.5194 76.3017 63.8339 76.6618 63.4647C76.9766 63.1408 77.5086 62.6002 77.9934 62.1664C78.2213 61.9574 78.4341 61.7715 78.5971 61.6328C79.6434 61.8689 80.6992 62.066 81.7638 62.2173C82.6376 62.3466 83.5184 62.4364 84.4011 62.5004C81.563 64.7347 79.2279 64.8434 76.3552 66.2126C74.3476 67.1568 73.3554 68.1732 72.8372 68.9931C72.3191 69.813 72.304 70.4163 72.304 70.4163C74.6617 69.4049 76.4541 69.83 79.085 69.032C81.7072 68.2159 82.7516 65.8158 83.3031 64.8886C83.6569 64.2846 84.3047 63.115 84.6346 62.5161C86.4406 62.637 88.2535 62.6105 90.0552 62.437C89.2279 63.7158 88.1199 64.5207 87.0276 65.2307C85.7584 66.0682 84.3557 66.7801 83.0204 68.2799C81.388 70.1005 80.9429 71.6575 80.9076 72.6601C80.8724 73.674 81.2129 74.185 81.2129 74.185C81.9319 73.07 82.7774 72.4052 83.6846 71.81L85.1036 70.9204C85.6016 70.6091 86.1091 70.2449 86.5945 69.931C87.6483 69.216 88.3717 68.2517 88.8817 67.2849C89.3916 66.3181 89.6371 65.3946 89.8002 64.8641C89.9959 64.2405 90.1526 63.6054 90.2692 62.9625C90.3064 62.7566 90.3322 62.5676 90.3555 62.4012C91.7075 62.2612 93.0486 62.0305 94.3696 61.7106C94.9353 61.5692 95.4963 61.4112 96.0524 61.2367C95.3643 61.9837 94.804 62.6844 94.2808 63.3436C93.599 64.2225 92.9833 65.0323 92.4085 65.8472C91.8281 66.6547 91.2887 67.4907 90.7924 68.3521C90.3202 69.1683 89.8216 70.0472 89.3683 71.1031C88.7639 72.5088 88.4869 73.7945 88.4636 74.8555C88.4403 75.9165 88.6556 76.7389 88.9226 77.2951C89.2021 77.8601 89.5112 78.174 89.7498 78.3498C89.8631 78.4432 89.9907 78.518 90.1276 78.5714C89.8814 77.0019 90.4021 75.7608 91.0423 74.686C91.6983 73.5911 92.5331 72.608 93.424 71.1703C94.3526 69.6648 94.6296 68.3289 94.8738 67.1172C95.1005 65.9131 95.2075 64.8459 95.3599 64.2099C95.4908 63.6449 95.7414 62.7132 96.0713 61.9228C96.1921 61.6221 96.3231 61.344 96.437 61.113C97.7724 60.6803 99.0695 60.1381 100.315 59.492C100.872 59.2032 101.418 58.8954 101.952 58.5685L101.869 58.6696C101.321 59.3469 100.817 60.0577 100.358 60.7978C99.8764 61.5551 99.4593 62.3512 99.1108 63.1778C98.6982 64.138 98.4023 65.144 98.2294 66.1743C98.044 67.2738 98.0767 68.399 98.3257 69.4859C98.5387 70.3974 98.8905 71.271 99.3689 72.0762C100.228 73.5164 101.222 74.3991 101.798 74.927C102.311 75.4061 103.193 76.096 103.968 76.5166C104.405 76.7706 104.872 76.9701 105.359 77.1105C104.337 76.4199 103.564 75.3527 103.041 74.3162C102.541 73.318 102.186 72.2536 101.988 71.1552C101.583 69.0251 101.743 67.1442 102.177 64.7291C102.775 61.5393 103.284 59.7431 103.554 58.5001C103.676 58.001 103.761 57.5973 103.824 57.2935C104.423 56.8371 104.992 56.343 105.528 55.8144C105.586 55.7557 105.618 55.6768 105.618 55.5946C105.618 55.5125 105.586 55.4336 105.528 55.3749C105.469 55.3174 105.39 55.2852 105.308 55.2852C105.225 55.2852 105.146 55.3174 105.087 55.3749L105.068 55.395C104.664 55.7973 104.24 56.1783 103.796 56.5363L103.596 56.5181L103.234 56.4196C102.989 56.3584 102.751 56.2743 102.523 56.1685C102.289 56.0746 102.061 55.9686 101.839 55.8508C100.947 55.3843 100.163 54.8225 99.4212 54.2342C97.9329 53.0539 96.6007 51.7575 94.7454 50.4473C92.275 48.6983 90.3945 48.1408 89.1901 48.0491C87.9719 47.9675 87.4337 48.3047 87.4337 48.3047C90.3863 49.9865 91.2677 52.0576 93.9119 54.4244C96.556 56.8352 99.8417 57.0141 101.178 57.0668C101.843 57.1118 102.51 57.0965 103.173 57.021C102.185 57.754 101.14 58.4077 100.049 58.976C99.8147 59.1015 99.5784 59.2218 99.34 59.3369C98.6865 59.4039 98.0266 59.3077 97.4198 59.0569C96.4754 58.6941 95.657 58.1052 94.9179 57.4366C94.1624 56.7598 93.5329 56.0366 92.6773 55.1866C91.9136 54.4433 91.1443 53.6635 90.222 52.8223C87.7963 50.5585 85.7716 49.5841 84.4709 49.3355C83.8156 49.2024 83.3415 49.2175 83.0292 49.2658C82.8727 49.2836 82.7194 49.3233 82.5741 49.3838C84.1536 50.3814 85.1068 51.5466 85.9932 52.7608C86.8796 53.9749 87.693 55.3033 89.0642 56.7962C89.3987 57.1594 89.7594 57.4976 90.1433 57.8083C90.3391 57.9665 90.4921 58.0857 90.6526 58.2025C90.8257 58.3325 90.997 58.4536 91.1789 58.5792C91.87 59.0549 92.6144 59.4487 93.3969 59.7525C94.5159 60.1786 95.7088 60.3784 96.9061 60.3402H96.9759C96.0779 60.6693 95.1639 60.9535 94.2373 61.1915C93.3339 61.4206 92.4192 61.5989 91.4987 61.7408C89.7989 61.0282 88.5996 59.8524 87.5829 58.6828C86.371 57.2872 85.3794 55.7654 83.6903 54.1513C82.7226 53.2253 81.7676 52.3904 80.8856 51.8705C80.0042 51.3375 79.2015 51.072 78.5675 51.001C77.9335 50.9301 77.484 51.0306 77.2133 51.1505C77.0748 51.2039 76.9469 51.2815 76.8356 51.3796C77.5659 51.6307 78.1407 52.0903 78.5984 52.5875C79.0561 53.0847 79.4218 53.6309 79.7662 54.1972C80.1106 54.7634 80.4335 55.3598 80.8365 55.9989C81.031 56.3128 81.2973 56.6663 81.5038 56.967C81.7103 57.2677 81.9521 57.5948 82.2133 57.9307C83.1568 59.1479 84.3763 60.1247 85.7716 60.7809C86.9911 61.366 88.1067 61.5851 88.7532 61.7295C89.0605 61.8061 89.4741 61.8827 89.9091 61.9442C87.8758 62.1466 85.8281 62.1605 83.7923 61.9856C83.0702 61.8299 82.3751 61.3472 81.8482 60.7677C81.2192 60.0602 80.754 59.2534 80.3763 58.4072C80.1836 57.9866 80.013 57.5496 79.8329 57.0982L79.5402 56.38C79.4363 56.1446 79.3324 55.9104 79.2311 55.68C78.8137 54.7528 78.339 53.7696 77.6572 52.7357C76.7544 51.3583 75.7125 50.3707 74.741 49.7731C73.7696 49.1754 72.8712 48.9701 72.2259 48.9375C71.9474 48.9341 71.6693 48.958 71.3955 49.009C71.2098 49.0557 71.0292 49.1209 70.8566 49.2037C70.7199 49.264 70.594 49.3463 70.4839 49.4472C72.0899 49.9099 73.0066 50.9923 73.6317 52.1192C74.2689 53.2705 74.6743 54.5268 75.3643 56.1094C75.6895 56.8591 76.0986 57.5696 76.5838 58.2276C77.0151 58.839 77.5074 59.4052 78.0532 59.9177C78.7978 60.6009 79.6481 61.1597 80.5714 61.5725C78.8522 61.2776 77.1524 60.8793 75.4814 60.3797C74.4684 59.4468 74.0177 58.2622 73.7255 57.1026C73.3875 55.7321 73.152 54.1036 72.1919 52.4117C71.5548 51.2817 70.8069 50.5183 70.1251 50.0311C69.4433 49.5439 68.8181 49.3173 68.3189 49.2212C67.9698 49.1523 67.6114 49.1453 67.2599 49.2005C67.1518 49.0085 67.0278 48.8258 66.8891 48.6543C66.3817 48.0171 65.7968 47.6913 65.3284 47.5745C64.9758 47.4764 64.6027 47.4774 64.2506 47.5777C64.1239 47.6112 64.0025 47.6622 63.8899 47.729C64.7083 48.3624 64.872 49.252 64.7965 50.0474C64.7247 50.8541 64.4622 51.7036 64.403 52.7972C64.3035 53.7822 64.6674 54.8564 65.2082 55.643C65.4356 55.981 65.6979 56.2943 65.9907 56.5778C65.0464 56.1048 64.1144 55.6093 63.1948 55.0911C62.5118 54.1181 62.3903 53.0521 62.3833 52.0206C62.3632 50.8692 62.503 49.635 61.9962 48.1006C61.6512 47.0924 61.1192 46.3472 60.567 45.9033C60.1411 45.5264 59.6211 45.2709 59.0618 45.1638C58.1722 45.0332 57.6685 45.322 57.6685 45.322C58.3944 46 58.6469 46.8067 58.7205 47.5896C58.7911 48.3875 58.6689 49.1591 58.6891 50.092C58.7092 51.0249 59.1184 51.8505 59.6636 52.5511C59.9968 52.9687 60.3735 53.3498 60.7874 53.688C60.5815 53.5625 60.3744 53.4369 60.1698 53.3113C59.2462 52.6208 58.5241 51.8818 57.8643 51.1235C56.8211 49.9237 55.9341 48.6663 54.5862 47.3517C52.8008 45.6026 51.1821 44.9183 50.0357 44.8537C49.4691 44.8223 49.0536 44.9353 48.8194 45.0916C48.5852 45.2479 48.5204 45.3641 48.5204 45.3641ZM68.6034 52.0601C68.9371 53.0401 69.1171 54.0452 69.4496 55.2381C69.6059 55.8048 69.84 56.3473 70.1452 56.8502C70.4386 57.3412 70.7873 57.797 71.1846 58.2088C71.6445 58.683 72.1613 59.0988 72.7233 59.4468L72.654 59.4575C71.6916 59.1118 70.7387 58.742 69.7952 58.3482C69.3916 58.1774 68.9919 57.9997 68.5927 57.8208C68.3899 57.5494 68.2367 57.2444 68.1401 56.9199C67.9663 56.3549 67.9285 55.7723 67.9405 55.191C67.9525 54.6096 68.0167 54.0195 68.0526 53.3704C68.0976 52.6508 68.0608 51.9284 67.943 51.217C67.8967 50.9282 67.8313 50.6428 67.7472 50.3626C68.1178 50.8821 68.4078 51.4544 68.6072 52.0601H68.6034Z" fill="#b1d3ba"/>
<g style="mix-blend-mode:multiply">
<path d="M48.0105 -47.226C49.0618 -44.2164 48.5771 -40.9625 48.1118 -37.816C48.0079 -37.1191 47.9015 -36.399 47.814 -35.6972C47.3834 -32.238 47.5207 -27.5929 50.62 -25.1062C53.6809 -22.6515 58.1156 -23.4388 62.027 -24.1338C62.3689 -24.1965 62.707 -24.2543 63.0419 -24.3121C69.1833 -25.3686 74.68 -25.0692 79.3797 -23.4225C84.9325 -21.4763 89.3898 -17.4527 91.2973 -12.6526C93.4442 -7.25353 92.2001 -0.95986 88.2717 2.655C86.5504 4.2383 84.4093 5.28233 82.338 6.2912C81.2489 6.82232 80.1226 7.37102 79.0712 7.99191C76.1853 9.69575 73.2427 12.7632 73.6381 16.2682C73.8395 18.0561 74.8739 19.6244 75.8743 21.1411C76.8073 22.5556 77.7718 24.0183 78.0992 25.6876C78.9768 30.1588 74.7996 34.3349 70.348 35.4348C66.9433 36.2736 63.3743 35.8787 59.9237 35.4976C58.8981 35.3846 57.8373 35.2672 56.8004 35.1837C51.033 34.7242 46.7948 35.8366 44.2047 38.4891C41.9169 40.832 40.8208 44.4845 40.9474 49.3456C40.9801 50.6093 41.0783 51.8982 41.174 53.1444C41.3742 55.7566 41.5807 58.4581 41.1942 61.0935C40.1711 68.0703 34.9055 74.5391 27.109 78.3969C20.1177 81.8561 12.3048 82.9459 4.74938 84L4.71287 83.7401C12.2475 82.6892 20.0396 81.6024 26.9925 78.1615C34.7116 74.342 39.9231 67.9472 40.9342 61.0565C41.3163 58.4493 41.1111 55.7629 40.9121 53.1645C40.8164 51.9151 40.7176 50.6238 40.6842 49.3531C40.5583 44.4186 41.677 40.702 44.0165 38.3039C46.6607 35.5937 50.9719 34.4555 56.8212 34.92C57.8625 35.0029 58.9252 35.1203 59.9526 35.2339C63.3806 35.6106 66.9257 36.0055 70.285 35.1781C74.6196 34.1108 78.6897 30.0603 77.8398 25.7335C77.525 24.115 76.5719 22.6742 75.6533 21.2805C74.6359 19.7386 73.5839 18.1415 73.3756 16.2933C72.8606 11.7273 77.5011 8.60903 78.9359 7.7615C79.9967 7.13371 81.1274 6.58438 82.2209 6.05138C84.2752 5.05067 86.3993 4.01544 88.0922 2.45787C91.9426 -1.08479 93.1596 -7.26106 91.0512 -12.5603C89.1694 -17.2914 84.7732 -21.261 79.2903 -23.1795C74.6315 -24.8118 69.1808 -25.1043 63.0847 -24.0584C62.749 -24.0007 62.4113 -23.9412 62.0718 -23.8801C58.1055 -23.1764 53.6079 -22.3772 50.4538 -24.9072C47.2594 -27.4692 47.1121 -32.2091 47.5515 -35.7342C47.639 -36.4392 47.746 -37.1612 47.8499 -37.8593C48.312 -40.9751 48.7899 -44.1963 47.7605 -47.1451L48.0105 -47.226Z" fill="#b1d3ba"/>
</g>
</g>
<defs>
<clipPath id="clip0_983_140">
<path d="M118 84L0 84L0 0L108 0C113.523 0 118 4.47715 118 10L118 84Z" fill="white"/>
</clipPath>
</defs>
</svg>
